HIERARCHY
ROOT Hips
{
	OFFSET -0.001795 -0.223333 0.028219
	CHANNELS 6 Xposition Yposition Zposition Zrotation Yrotation Xrotation 
	JOINT LeftUpLeg
	{
		OFFSET 0.069520 -0.091406 -0.006815
		CHANNELS 3 Zrotation Yrotation Xrotation
		JOINT LeftLeg
		{
			OFFSET 0.034277 -0.375199 -0.004496
			CHANNELS 3 Zrotation Yrotation Xrotation
			JOINT LeftFoot
			{
				OFFSET -0.013596 -0.397961 -0.043693
				CHANNELS 3 Zrotation Yrotation Xrotation
				JOINT LeftToe
				{
					OFFSET 0.026358 -0.055791 0.119288
					CHANNELS 3 Zrotation Yrotation Xrotation
					End Site
					{
						OFFSET 0.000000 0.000000 0.000000
					}
				}
			}
		}
	}
	JOINT RightUpLeg
	{
		OFFSET -0.067670 -0.090522 -0.004320
		CHANNELS 3 Zrotation Yrotation Xrotation
		JOINT RightLeg
		{
			OFFSET -0.038290 -0.382569 -0.008850
			CHANNELS 3 Zrotation Yrotation Xrotation
			JOINT RightFoot
			{
				OFFSET 0.015774 -0.398415 -0.042312
				CHANNELS 3 Zrotation Yrotation Xrotation
				JOINT RightToe
				{
					OFFSET -0.025372 -0.048144 0.123348
					CHANNELS 3 Zrotation Yrotation Xrotation
					End Site
					{
						OFFSET 0.000000 0.000000 0.000000
					}
				}
			}
		}
	}
	JOINT Spine
	{
		OFFSET -0.002533 0.108963 -0.026696
		CHANNELS 3 Zrotation Yrotation Xrotation
		JOINT Spine1
		{
			OFFSET 0.005487 0.135180 0.001092
			CHANNELS 3 Zrotation Yrotation Xrotation
			JOINT Spine2
			{
				OFFSET 0.001457 0.052922 0.025425
				CHANNELS 3 Zrotation Yrotation Xrotation
				JOINT Neck
				{
					OFFSET -0.002778 0.213870 -0.042857
					CHANNELS 3 Zrotation Yrotation Xrotation
					JOINT Head
					{
						OFFSET 0.005152 0.064970 0.051349
						CHANNELS 3 Zrotation Yrotation Xrotation
						End Site
						{
							OFFSET 0.000000 0.000000 0.000000
						}
					}
				}
				JOINT LeftShoulder
				{
					OFFSET 0.078845 0.121749 -0.034090
					CHANNELS 3 Zrotation Yrotation Xrotation
					JOINT LeftArm
					{
						OFFSET 0.090977 0.030469 -0.008868
						CHANNELS 3 Zrotation Yrotation Xrotation
						JOINT LeftForeArm
						{
							OFFSET 0.259612 -0.012772 -0.027456
							CHANNELS 3 Zrotation Yrotation Xrotation
							JOINT LeftHand
							{
								OFFSET 0.249234 0.008986 -0.001171
								CHANNELS 3 Zrotation Yrotation Xrotation
								End Site
								{
									OFFSET 0.000000 0.000000 0.000000
								}
							}
						}
					}
				}
				JOINT RightShoulder
				{
					OFFSET -0.081759 0.118833 -0.038615
					CHANNELS 3 Zrotation Yrotation Xrotation
					JOINT RightArm
					{
						OFFSET -0.096012 0.032551 -0.009143
						CHANNELS 3 Zrotation Yrotation Xrotation
						JOINT RightForeArm
						{
							OFFSET -0.253742 -0.013329 -0.021401
							CHANNELS 3 Zrotation Yrotation Xrotation
							JOINT RightHand
							{
								OFFSET -0.255298 0.007772 -0.005559
								CHANNELS 3 Zrotation Yrotation Xrotation
								End Site
								{
									OFFSET 0.000000 0.000000 0.000000
								}
							}
						}
					}
				}
			}
		}
	}
}
MOTION
Frames: 13
Frame Time: 0.050000
0.166706 0.860616 -0.009691 -6.185785 2.402412 25.273122 7.981649 -1.846953 -59.299183 -0.181385 -1.575000 43.971334 1.220017 1.445998 -2.924112 0.000000 0.000000 0.000000 1.217795 4.746764 -45.180209 -0.086852 1.684142 46.300829 -6.684800 -16.352564 -14.280414 0.000000 0.000000 0.000000 -8.086940 1.593191 45.620461 -2.304162 0.989741 0.680788 -9.319212 17.533997 6.568818 13.329142 -1.764854 -28.138047 0.000000 0.000000 0.000000 27.288020 -43.234609 9.374509 22.733913 -37.436544 -12.445706 48.965212 11.841770 3.481870 0.000000 0.000000 0.000000 -29.161402 27.454573 3.468182 -19.155609 46.516505 -5.580221 -50.659259 -3.156214 5.074887 0.000000 0.000000 0.000000 
0.165739 0.854507 -0.009450 -6.082762 2.490967 25.226493 8.592011 -1.588878 -59.739384 -0.897731 -1.243433 45.504883 1.872576 2.388206 -4.321776 0.000000 0.000000 0.000000 0.863819 4.625068 -45.319888 0.180902 1.553651 47.875171 -6.574405 -15.753160 -15.365636 0.000000 0.000000 0.000000 -8.155067 1.607950 45.980234 -2.257094 0.968539 0.692205 -9.858852 17.272651 6.259291 13.342826 -2.050879 -26.820461 0.000000 0.000000 0.000000 27.883762 -43.314811 9.236063 22.499647 -36.973134 -12.138717 49.510196 12.160420 3.606058 0.000000 0.000000 0.000000 -29.828110 27.305849 3.287505 -20.684158 46.390808 -6.016885 -49.665137 -4.776441 5.587821 0.000000 0.000000 0.000000 
0.164264 0.847842 -0.008978 -5.849080 2.327547 25.201581 9.377245 -1.162727 -60.307811 -2.192630 -0.515073 46.957028 2.487172 3.729704 -4.803919 0.000000 0.000000 0.000000 0.847661 4.679193 -45.695210 -0.282159 1.924703 49.945217 -6.587793 -15.689414 -15.663616 0.000000 0.000000 0.000000 -8.723153 1.940213 46.404720 -1.964556 0.843001 0.547565 -10.322051 17.121408 6.603817 13.502733 -2.288146 -26.200739 0.000000 0.000000 0.000000 30.148623 -42.110002 8.663031 22.257172 -36.334246 -11.812305 49.852145 13.387665 3.893089 0.000000 0.000000 0.000000 -30.822693 26.928424 2.917154 -22.441853 45.996945 -6.433037 -48.287374 -6.553244 6.079047 0.000000 0.000000 0.000000 
0.162522 0.842569 -0.008005 -5.561355 2.551545 25.340236 10.342294 -0.763276 -61.008690 -3.869046 0.429786 47.955847 2.797466 4.070644 -5.852056 0.000000 0.000000 0.000000 1.251631 4.783346 -45.836328 -0.970149 2.346975 51.058927 -6.496147 -15.084937 -16.773761 0.000000 0.000000 0.000000 -9.057078 2.063323 46.616666 -1.761937 0.744443 0.879873 -10.980445 16.539058 6.203750 13.428824 -2.663787 -24.504828 0.000000 0.000000 0.000000 30.841250 -41.674127 8.488809 21.762036 -35.412715 -11.211610 50.722467 12.440835 3.482349 0.000000 0.000000 0.000000 -30.825605 26.808313 2.954643 -24.149560 45.927445 -7.022391 -47.249204 -7.411301 6.172175 0.000000 0.000000 0.000000 
0.160921 0.839439 -0.006582 -5.501653 2.914331 25.568984 11.259140 -0.415898 -61.288993 -4.993748 1.053363 47.705834 2.876044 4.232066 -5.994397 0.000000 0.000000 0.000000 1.848161 4.900088 -45.653500 -1.824897 2.841602 51.697030 -6.375291 -14.567151 -16.736592 0.000000 0.000000 0.000000 -9.475466 2.196735 46.393725 -1.815977 0.761924 1.042130 -10.866701 16.424234 6.249393 13.150580 -2.660171 -23.909858 0.000000 0.000000 0.000000 31.116546 -41.231208 8.421056 21.488478 -35.200120 -11.035775 52.020660 11.836377 3.219059 0.000000 0.000000 0.000000 -30.677868 26.544020 2.932528 -24.096294 46.038810 -7.018158 -47.154738 -7.977334 6.392149 0.000000 0.000000 0.000000 
0.159730 0.835830 -0.004864 -5.394008 3.267914 25.451027 12.213294 -0.052123 -61.268134 -6.642671 1.972144 47.537756 3.084818 4.378862 -6.938969 0.000000 0.000000 0.000000 2.591533 5.005972 -44.945782 -3.144428 3.652001 52.606054 -6.134839 -13.431245 -16.898265 0.000000 0.000000 0.000000 -9.829862 2.298604 46.620176 -1.557615 0.636236 1.320888 -11.330196 16.038761 5.795106 13.231288 -2.870038 -23.244040 0.000000 0.000000 0.000000 30.119493 -40.972670 8.608092 20.842463 -34.674665 -10.555779 53.311430 10.313389 2.598727 0.000000 0.000000 0.000000 -29.317225 26.714015 3.358329 -24.396726 46.078611 -7.260231 -47.234072 -7.761898 6.268367 0.000000 0.000000 0.000000 
0.158895 0.831476 -0.003244 -5.268213 3.928436 25.370376 12.857160 0.034086 -61.043341 -7.658717 2.443273 46.964304 3.186770 4.101568 -8.173487 0.000000 0.000000 0.000000 3.113401 4.954677 -43.980933 -4.012353 4.056512 52.754915 -5.995450 -12.575764 -17.960642 0.000000 0.000000 0.000000 -10.080691 2.273429 46.539436 -1.602946 0.645296 1.459493 -11.144087 15.738035 5.583963 13.315282 -3.047353 -22.744372 0.000000 0.000000 0.000000 28.800976 -41.030055 8.849724 20.347834 -34.683081 -10.327026 54.366256 9.325465 2.241510 0.000000 0.000000 0.000000 -27.702585 26.976320 3.861699 -23.585897 45.849133 -7.113155 -47.701024 -7.261547 6.146020 0.000000 0.000000 0.000000 
0.158286 0.824740 -0.002002 -4.972017 4.478825 25.336140 13.799869 0.302677 -61.064284 -9.177851 3.252324 47.102859 3.422844 4.089741 -9.634127 0.000000 0.000000 0.000000 3.091057 4.825844 -43.776974 -4.877002 4.596878 54.556573 -5.841367 -11.809252 -18.186393 0.000000 0.000000 0.000000 -10.190037 2.198325 46.744806 -1.332339 0.515479 1.539402 -11.509196 15.395569 5.384018 12.880930 -2.908601 -22.381660 0.000000 0.000000 0.000000 28.198242 -40.833579 8.944023 19.625018 -34.248854 -9.896182 54.533545 9.316712 2.210146 0.000000 0.000000 0.000000 -25.822119 27.301633 4.480396 -23.088814 45.793538 -7.117681 -47.349823 -7.048224 5.945606 0.000000 0.000000 0.000000 
0.157873 0.817546 -0.001001 -4.542385 5.464946 25.175270 14.671995 0.377050 -61.537231 -10.777028 4.080423 47.856480 3.722931 4.316663 -10.967931 0.000000 0.000000 0.000000 3.170758 4.647563 -43.483093 -5.589872 4.917614 56.255805 -5.888131 -11.887782 -18.905348 0.000000 0.000000 0.000000 -10.347920 2.035286 47.047240 -1.220446 0.446568 1.767417 -11.348311 14.724696 5.363236 12.594651 -2.766283 -22.521007 0.000000 0.000000 0.000000 27.426184 -40.556421 9.025861 19.300366 -33.920020 -9.569215 53.520926 10.043493 2.556417 0.000000 0.000000 0.000000 -24.110404 27.675117 5.077471 -22.186863 45.694787 -7.032239 -47.391879 -6.655392 5.734932 0.000000 0.000000 0.000000 
0.157660 0.807118 0.000044 -4.196450 5.994597 24.744852 16.142742 0.929762 -62.145252 -13.284139 5.634796 49.327716 4.185474 5.066178 -12.381077 0.000000 0.000000 0.000000 2.651863 4.420558 -43.846365 -5.255804 4.732002 59.306625 -5.849635 -11.589607 -19.159195 0.000000 0.000000 0.000000 -10.708873 2.074985 47.466856 -1.210895 0.425808 2.093830 -10.776675 14.517551 4.941886 12.428983 -2.565092 -23.067173 0.000000 0.000000 0.000000 26.154606 -40.633551 9.309207 17.988662 -34.210725 -9.274547 53.316410 9.886781 2.524612 0.000000 0.000000 0.000000 -21.568729 28.798810 6.178294 -21.274599 46.129500 -7.084514 -46.971167 -5.596087 5.128718 0.000000 0.000000 0.000000 
0.157831 0.793830 0.001547 -3.987994 6.696264 24.087836 17.758676 1.526148 -63.136051 -16.012313 7.523998 51.689078 4.535279 5.736496 -13.327298 0.000000 0.000000 0.000000 2.421559 4.260600 -44.285746 -5.711894 5.115738 63.099697 -5.809291 -11.212592 -19.329721 0.000000 0.000000 0.000000 -11.055318 2.057969 47.659726 -1.190186 0.401692 2.325617 -10.126950 14.269732 4.816665 12.043197 -2.367041 -23.145696 0.000000 0.000000 0.000000 24.896919 -40.657376 9.542529 15.938377 -34.678982 -8.798631 52.121502 9.864482 2.459368 0.000000 0.000000 0.000000 -19.000020 30.085632 7.373564 -20.059328 46.856728 -7.089427 -46.086229 -4.988200 4.625892 0.000000 0.000000 0.000000 
0.158372 0.776892 0.003496 -3.118981 7.482365 22.649572 18.844303 1.748579 -63.419913 -19.126145 9.792623 54.403515 5.550344 8.368053 -14.841379 0.000000 0.000000 0.000000 1.526929 3.833036 -44.767378 -6.030531 5.420725 68.412312 -5.405286 -9.195526 -18.988700 0.000000 0.000000 0.000000 -11.249565 1.904004 48.768664 -1.086336 0.349600 2.338332 -10.359655 14.109746 4.483732 12.378232 -2.601220 -22.902710 0.000000 0.000000 0.000000 22.969399 -41.157303 9.908736 13.392742 -35.083803 -8.127645 51.312029 8.162028 1.659949 0.000000 0.000000 0.000000 -15.768455 30.916593 8.697130 -16.520502 48.119288 -6.338440 -46.568087 -1.928669 3.389777 0.000000 0.000000 0.000000 
0.159411 0.755144 0.005638 -2.528007 8.038190 20.786346 20.721167 2.524883 -63.842219 -22.949369 12.972896 57.524947 6.294409 10.248333 -16.429751 0.000000 0.000000 0.000000 1.101644 3.589496 -44.982038 -6.570068 6.171449 74.703630 -5.251349 -7.936858 -19.294526 0.000000 0.000000 0.000000 -11.578504 1.875963 49.745515 -1.535985 0.562727 2.291589 -9.989459 14.349848 4.371937 12.174391 -2.364735 -23.414839 0.000000 0.000000 0.000000 21.598036 -40.879878 10.091760 9.606032 -36.776445 -7.491102 50.980415 6.619383 0.843136 0.000000 0.000000 0.000000 -12.824364 31.010435 9.694265 -13.756355 49.537241 -5.720631 -45.917642 0.508410 2.306371 0.000000 0.000000 0.000000 
